<?xml version="1.0" encoding="UTF-8"?>
<!DOCTYPE svg PUBLIC "-//W3C//DTD SVG 1.1//EN" "http://www.w3.org/Graphics/SVG/1.1/DTD/svg11.dtd">
<svg xmlns="http://www.w3.org/2000/svg" version="1.1" width="100px" height="100px" style="shape-rendering:geometricPrecision; text-rendering:geometricPrecision; image-rendering:optimizeQuality; fill-rule:evenodd; clip-rule:evenodd" xmlns:xlink="http://www.w3.org/1999/xlink">
<g><path style="opacity:0.732" fill="#98bdce" d="M 36.5,17.5 C 32.5241,19.7818 32.5241,22.1151 36.5,24.5C 37.5434,27.0562 39.2101,29.2228 41.5,31C 40.552,31.4828 39.552,31.6495 38.5,31.5C 35.268,28.4341 32.6013,24.9341 30.5,21C 31.6864,18.5693 33.6864,17.4027 36.5,17.5 Z"/></g>
<g><path style="opacity:0.998" fill="#95bbcd" d="M 53.5,26.5 C 50.1667,28.1667 46.8333,29.8333 43.5,31.5C 41.5272,28.8605 39.1939,26.5272 36.5,24.5C 35.962,22.8828 35.6287,21.2161 35.5,19.5C 42.6567,19.1035 48.6567,21.4369 53.5,26.5 Z"/></g>
<g><path style="opacity:0.772" fill="#0a0c0d" d="M 36.5,17.5 C 44.476,17.6566 51.476,20.3233 57.5,25.5C 57.56,26.0431 57.8933,26.3764 58.5,26.5C 62.0128,25.3355 65.3462,24.0022 68.5,22.5C 74.8807,20.2743 81.5474,19.4409 88.5,20C 93.1433,22.0724 94.6433,25.5724 93,30.5C 85.1435,34.8417 76.9769,38.5084 68.5,41.5C 65.2172,49.0085 61.5505,56.3418 57.5,63.5C 54.3411,67.2748 50.3411,68.7748 45.5,68C 44.944,67.6174 44.6107,67.1174 44.5,66.5C 44.8382,59.6535 46.5048,53.1535 49.5,47C 47.6476,46.2274 46.3143,46.7274 45.5,48.5C 38.0986,50.5584 30.5986,52.225 23,53.5C 20.2561,53.5899 17.7561,52.9232 15.5,51.5C 13.6668,49.5043 13.1668,47.171 14,44.5C 14.5421,49.5304 17.3754,51.8637 22.5,51.5C 32.1037,49.7659 41.4371,47.0992 50.5,43.5C 50.1691,50.191 48.8358,56.8576 46.5,63.5C 46.8333,64.1667 47.1667,64.8333 47.5,65.5C 50.43,64.5469 52.7633,62.8802 54.5,60.5C 55.1667,60.5 55.5,60.1667 55.5,59.5C 55.5,59.1667 55.5,58.8333 55.5,58.5C 56.1667,58.5 56.5,58.1667 56.5,57.5C 56.5,57.1667 56.5,56.8333 56.5,56.5C 57.1667,56.5 57.5,56.1667 57.5,55.5C 57.5,55.1667 57.5,54.8333 57.5,54.5C 58.1667,54.5 58.5,54.1667 58.5,53.5C 58.5,53.1667 58.5,52.8333 58.5,52.5C 59.1667,52.5 59.5,52.1667 59.5,51.5C 59.5,51.1667 59.5,50.8333 59.5,50.5C 60.3382,50.1583 60.6716,49.4916 60.5,48.5C 60.5,48.1667 60.5,47.8333 60.5,47.5C 61.1667,47.5 61.5,47.1667 61.5,46.5C 61.5,46.1667 61.5,45.8333 61.5,45.5C 62.3382,45.1583 62.6716,44.4916 62.5,43.5C 62.5,43.1667 62.5,42.8333 62.5,42.5C 63.1667,42.5 63.5,42.1667 63.5,41.5C 63.5,41.1667 63.5,40.8333 63.5,40.5C 64.1667,40.5 64.5,40.1667 64.5,39.5C 69.613,37.0664 74.9463,34.8998 80.5,33C 83.8981,31.6429 86.8981,29.8096 89.5,27.5C 90.8333,27.1667 90.8333,26.8333 89.5,26.5C 89.573,24.9731 88.9063,23.9731 87.5,23.5C 84.2693,22.2185 80.9359,22.2185 77.5,23.5C 70.7454,24.147 64.2454,25.8137 58,28.5C 56.5936,27.5862 55.0936,26.9195 53.5,26.5C 48.6567,21.4369 42.6567,19.1035 35.5,19.5C 35.6287,21.2161 35.962,22.8828 36.5,24.5C 32.5241,22.1151 32.5241,19.7818 36.5,17.5 Z"/></g>
<g><path style="opacity:0.973" fill="#76858e" d="M 68.5,22.5 C 65.3462,24.0022 62.0128,25.3355 58.5,26.5C 57.8933,26.3764 57.56,26.0431 57.5,25.5C 60.9861,23.8944 64.6528,22.8944 68.5,22.5 Z"/></g>
<g><path style="opacity:0.982" fill="#bed6e5" d="M 77.5,23.5 C 78.016,25.1998 79.016,26.5331 80.5,27.5C 83.0237,26.4077 85.357,25.0743 87.5,23.5C 88.9063,23.9731 89.573,24.9731 89.5,26.5C 89.5,26.8333 89.5,27.1667 89.5,27.5C 86.8981,29.8096 83.8981,31.6429 80.5,33C 74.9463,34.8998 69.613,37.0664 64.5,39.5C 63.8333,39.5 63.5,39.8333 63.5,40.5C 63.5,40.8333 63.5,41.1667 63.5,41.5C 62.8333,41.5 62.5,41.8333 62.5,42.5C 62.5,42.8333 62.5,43.1667 62.5,43.5C 61.6618,43.8417 61.3284,44.5084 61.5,45.5C 61.5,45.8333 61.5,46.1667 61.5,46.5C 60.8333,46.5 60.5,46.8333 60.5,47.5C 60.5,47.8333 60.5,48.1667 60.5,48.5C 59.6618,48.8417 59.3284,49.5084 59.5,50.5C 59.5,50.8333 59.5,51.1667 59.5,51.5C 58.8333,51.5 58.5,51.8333 58.5,52.5C 58.5,52.8333 58.5,53.1667 58.5,53.5C 57.8333,53.5 57.5,53.8333 57.5,54.5C 57.5,54.8333 57.5,55.1667 57.5,55.5C 56.8333,55.5 56.5,55.8333 56.5,56.5C 56.5,56.8333 56.5,57.1667 56.5,57.5C 55.8333,57.5 55.5,57.8333 55.5,58.5C 55.5,58.8333 55.5,59.1667 55.5,59.5C 54.8333,59.5 54.5,59.8333 54.5,60.5C 52.7633,62.8802 50.43,64.5469 47.5,65.5C 47.1667,64.8333 46.8333,64.1667 46.5,63.5C 48.8358,56.8576 50.1691,50.191 50.5,43.5C 41.4371,47.0992 32.1037,49.7659 22.5,51.5C 17.3754,51.8637 14.5421,49.5304 14,44.5C 13.1668,47.171 13.6668,49.5043 15.5,51.5C 10.8974,50.0415 9.56406,47.0415 11.5,42.5C 16.282,41.2729 20.6153,39.2729 24.5,36.5C 29.1667,35.1667 33.8333,33.8333 38.5,32.5C 38.9382,32.4346 39.2716,32.6012 39.5,33C 37.4049,33.5556 37.2382,34.0556 39,34.5C 41.1845,34.3023 42.6845,33.3023 43.5,31.5C 46.8333,29.8333 50.1667,28.1667 53.5,26.5C 55.0936,26.9195 56.5936,27.5862 58,28.5C 64.2454,25.8137 70.7454,24.147 77.5,23.5 Z"/></g>
<g><path style="opacity:1" fill="#3b6faa" d="M 87.5,23.5 C 85.357,25.0743 83.0237,26.4077 80.5,27.5C 79.016,26.5331 78.016,25.1998 77.5,23.5C 80.9359,22.2185 84.2693,22.2185 87.5,23.5 Z"/></g>
<g><path style="opacity:1" fill="#4378b6" d="M 64.5,28.5 C 67.1662,28.0658 68.3329,29.0658 68,31.5C 65.3422,32.694 64.1756,31.694 64.5,28.5 Z"/></g>
<g><path style="opacity:1" fill="#3b73b3" d="M 57.5,30.5 C 58.8333,30.5 60.1667,30.5 61.5,30.5C 61.5,31.8333 61.5,33.1667 61.5,34.5C 58.5,34.8333 57.1667,33.5 57.5,30.5 Z"/></g>
<g><path style="opacity:0.882" fill="#96bcce" d="M 24.5,36.5 C 20.6153,39.2729 16.282,41.2729 11.5,42.5C 2.89213,36.1594 3.89213,32.6594 14.5,32C 17.7365,33.7862 21.0698,35.2862 24.5,36.5 Z"/></g>
<g><path style="opacity:0.431" fill="#6a7c85" d="M 36.5,24.5 C 39.1939,26.5272 41.5272,28.8605 43.5,31.5C 42.6845,33.3023 41.1845,34.3023 39,34.5C 37.2382,34.0556 37.4049,33.5556 39.5,33C 39.2716,32.6012 38.9382,32.4346 38.5,32.5C 38.5,32.1667 38.5,31.8333 38.5,31.5C 39.552,31.6495 40.552,31.4828 41.5,31C 39.2101,29.2228 37.5434,27.0562 36.5,24.5 Z"/></g>
<g><path style="opacity:1" fill="#3d75b4" d="M 51.5,32.5 C 54.5,32.1667 55.8333,33.5 55.5,36.5C 51.56,37.234 50.2266,35.9007 51.5,32.5 Z"/></g>
<g><path style="opacity:1" fill="#4077b5" d="M 43.5,35.5 C 44.8734,35.3433 46.2068,35.51 47.5,36C 48.6745,38.8288 47.6745,39.8288 44.5,39C 43.6634,37.9887 43.33,36.8221 43.5,35.5 Z"/></g>
<g><path style="opacity:1" fill="#3d75b4" d="M 37.5,37.5 C 40.1662,37.0658 41.3329,38.0658 41,40.5C 37.4034,42.0661 36.2368,41.0661 37.5,37.5 Z"/></g>
<g><path style="opacity:0.819" fill="#bcd2e0" d="M 44.5,66.5 C 42.5159,66.516 41.5159,65.516 41.5,63.5C 42.8404,58.4824 44.1737,53.4824 45.5,48.5C 46.3143,46.7274 47.6476,46.2274 49.5,47C 46.5048,53.1535 44.8382,59.6535 44.5,66.5 Z"/></g>
<g><path style="opacity:0.677" fill="#000000" d="M 39.5,82.5 C 55.8786,82.4536 72.212,83.287 88.5,85C 62.8792,87.7845 37.2126,88.1178 11.5,86C 20.8822,84.3371 30.2156,83.1704 39.5,82.5 Z"/></g>
</svg>
