<?xml version="1.0" encoding="iso-8859-1"?>
<!-- Generator: Adobe Illustrator 19.0.0, SVG Export Plug-In . SVG Version: 6.00 Build 0)  -->
<svg version="1.1" id="Layer_1" xmlns="http://www.w3.org/2000/svg" xmlns:xlink="http://www.w3.org/1999/xlink" x="0px" y="0px"
	 viewBox="0 0 512 512" style="enable-background:new 0 0 512 512;" xml:space="preserve">
<circle style="fill:#FF8E31;" cx="256" cy="256" r="256"/>
<path style="fill:#ED7425;" d="M508.157,299.96L373.706,165.535l-27.236-27.233c-0.294-0.292-0.684-0.556-1.103-0.727
	c-0.43-0.212-0.858-0.294-1.329-0.294H140.716c-0.899,0-1.789,0.338-2.429,1.021c-0.681,0.678-1.021,1.539-1.021,2.435v230.561
	c0,0.901,0.34,1.743,1.021,2.424l137.441,137.441C393.167,502.203,488.394,414.062,508.157,299.96z"/>
<path style="fill:#34495E;" d="M346.506,138.278c-0.31-0.31-0.684-0.558-1.119-0.735c-0.435-0.179-0.878-0.264-1.321-0.264H140.716
	c-0.873,0-1.759,0.33-2.422,0.998c-0.681,0.681-1.019,1.554-1.019,2.445v230.556c0,0.886,0.338,1.761,1.019,2.429
	c0.663,0.668,1.549,1.014,2.422,1.014h230.569c0.878,0,1.756-0.346,2.429-1.014c0.66-0.668,1.011-1.546,1.011-2.429V167.916
	c0-0.428-0.097-0.87-0.266-1.303c-0.177-0.435-0.443-0.804-0.745-1.114L346.506,138.278z M165.391,365.035h-12.035v-8.596h12.035
	V365.035z"/>
<path style="fill:#5D6D7E;" d="M173.796,137.28v77.916c0,1.193,0.471,2.317,1.321,3.151c0.842,0.852,1.964,1.318,3.159,1.318
	h141.683c1.185,0,2.33-0.463,3.174-1.318c0.835-0.835,1.29-1.958,1.29-3.151V137.28H173.796z"/>
<path style="fill:#FFFFFF;" d="M205.778,137.28c-0.873,0-1.759,0.33-2.422,0.998c-0.686,0.681-1.019,1.554-1.019,2.445v74.473
	c0,0.881,0.333,1.766,1.019,2.437c0.663,0.66,1.549,0.998,2.422,0.998h114.181c0.886,0,1.769-0.338,2.429-0.998
	c0.681-0.671,1.016-1.554,1.016-2.437v-74.473c0-0.888-0.338-1.761-1.016-2.445c-0.66-0.668-1.546-0.998-2.429-0.998H205.778z
	 M302.927,202.14h-14.426v-48.369h14.426V202.14z"/>
<path style="fill:#5D6D7E;" d="M179.077,374.72V272.031c0-1.559,0.612-3.021,1.71-4.129c1.111-1.103,2.578-1.713,4.14-1.713h142.139
	c1.564,0,3.041,0.609,4.142,1.713c1.111,1.111,1.715,2.57,1.715,4.129V374.72H179.077z"/>
<path style="fill:#FFFFFF;" d="M330.506,272.031c0-0.87-0.33-1.761-0.998-2.422c-0.668-0.676-1.551-1.014-2.442-1.014H184.927
	c-0.886,0-1.769,0.338-2.429,1.014c-0.673,0.66-1.006,1.551-1.006,2.422V374.72h149.015V272.031z"/>
<g>
	<rect x="181.494" y="357.555" style="fill:#0684BA;" width="149.018" height="17.157"/>
	<rect x="190.669" y="298.01" style="fill:#0684BA;" width="130.637" height="1.377"/>
	<rect x="190.669" y="312.909" style="fill:#0684BA;" width="130.637" height="1.377"/>
	<rect x="190.669" y="327.782" style="fill:#0684BA;" width="130.637" height="1.362"/>
	<rect x="190.669" y="342.682" style="fill:#0684BA;" width="130.637" height="1.37"/>
</g>
<g>
</g>
<g>
</g>
<g>
</g>
<g>
</g>
<g>
</g>
<g>
</g>
<g>
</g>
<g>
</g>
<g>
</g>
<g>
</g>
<g>
</g>
<g>
</g>
<g>
</g>
<g>
</g>
<g>
</g>
</svg>
