<?xml version="1.0" encoding="iso-8859-1"?>
<!-- Generator: Adobe Illustrator 19.0.0, SVG Export Plug-In . SVG Version: 6.00 Build 0)  -->
<svg version="1.1" id="Layer_1" xmlns="http://www.w3.org/2000/svg" xmlns:xlink="http://www.w3.org/1999/xlink" x="0px" y="0px"
	 viewBox="0 0 512 512" style="enable-background:new 0 0 512 512;" xml:space="preserve">
<circle style="fill:#C1D354;" cx="256" cy="256" r="256"/>
<path style="fill:#9DB138;" d="M275.151,511.206c107.643-7.972,196.726-82.445,226.312-182.536L334.185,161.393l-3.666-3.663
	c-19.356-18.537-45.622-29.891-74.524-29.891c-59.658,0-107.999,48.381-107.999,108.045c0,29.801,12.101,56.814,31.619,76.372
	l34.701,34.698l17.787,17.787l1.16,1.16l-85.174,18.245L275.151,511.206z"/>
<rect x="214.349" y="329.523" style="fill:#CEE2F2;" width="83.315" height="42.268"/>
<path style="fill:#E1EFFA;" d="M148.091,377.674c0-3.308,1.26-6.615,3.786-9.142c2.522-2.514,5.839-3.799,9.152-3.799h189.932
	c3.315,0,6.63,1.285,9.157,3.799c2.514,2.527,3.779,5.834,3.779,9.142v6.474H148.091V377.674z"/>
<path style="fill:#A6C8E6;" d="M214.341,344.607c12.951,4.979,26.985,7.734,41.654,7.734c14.669,0,28.708-2.755,41.659-7.734
	v-15.086h-83.313V344.607z"/>
<path style="fill:#E1EFFA;" d="M364.006,235.871c0,59.651-48.353,108.006-108.012,108.006c-59.656,0-108.009-48.356-108.009-108.006
	c0-59.668,48.353-108.027,108.009-108.027C315.656,127.844,364.006,176.205,364.006,235.871z"/>
<path style="fill:#B6D4ED;" d="M363.494,246.292L305.9,188.698l-2.721-2.724c-12.311-11.64-28.936-18.801-47.186-18.801
	c-37.875,0-68.692,30.817-68.692,68.7c0,17.846,6.851,34.143,18.051,46.38l4.28,4.262l56.852,56.863
	C317.783,338.417,358.579,297.603,363.494,246.292z"/>
<path style="fill:#F2F9FF;" d="M320.788,234.243c-0.87-35.031-29.553-63.176-64.801-63.176c-17.564,0-33.539,7.03-45.194,18.386
	c-12.101,11.756-19.604,28.209-19.604,46.413c0,35.807,29.015,64.809,64.799,64.809c18.194,0,34.637-7.514,46.42-19.584
	c11.008-11.292,17.953-26.639,18.381-43.589c0-0.307,0.023-0.663,0-0.991c0.023-0.225,0.023-0.443,0.023-0.645
	C320.809,235.323,320.809,234.765,320.788,234.243z"/>
<path style="fill:#03628A;" d="M255.995,185.452c-27.835,0-50.404,22.564-50.404,50.419c0,27.837,22.572,50.406,50.404,50.406
	c27.83,0,50.401-22.569,50.401-50.406C306.399,208.018,283.825,185.452,255.995,185.452L255.995,185.452z"/>
<path style="fill:#0684BA;" d="M255.995,196.669c21.614,0,39.201,17.582,39.201,39.201c0,21.614-17.585,39.194-39.201,39.194
	s-39.201-17.58-39.201-39.194C216.796,214.252,234.378,196.669,255.995,196.669L255.995,196.669z"/>
<path style="fill:#03628A;" d="M275.433,235.871c0,10.724-8.694,19.438-19.438,19.438c-10.734,0-19.441-8.712-19.441-19.438
	c0-10.742,8.704-19.446,19.441-19.446C266.737,216.425,275.433,225.129,275.433,235.871z"/>
<path style="fill:#44C0E0;" d="M253.44,216.602c0.23,3.84-1.485,8.243-4.966,11.725s-7.91,5.222-11.75,4.966
	C237.875,224.589,244.736,217.728,253.44,216.602z"/>
<path style="fill:#46CEED;" d="M253.44,216.602c-8.704,1.126-15.565,7.987-16.717,16.691c-2.278-0.128-4.352-0.947-5.914-2.534
	c-4.198-4.198-3.098-12.083,2.432-17.638c5.555-5.53,13.466-6.63,17.664-2.432C252.467,212.25,253.312,214.323,253.44,216.602z"/>
<path style="fill:#44C0E0;" d="M274.125,242.79c0.026,0,0.026,0,0,0.026c-1.946,5.146-6.042,9.267-11.213,11.213
	c-0.054-0.026-0.102-0.077-0.156-0.128c-2.381-2.381-1.741-6.81,1.357-9.907c3.123-3.098,7.552-3.738,9.882-1.357
	C274.048,242.688,274.099,242.739,274.125,242.79z"/>
<path style="fill:#46CEED;" d="M272.64,252.518c-3.046,3.046-7.347,3.686-9.728,1.51c5.171-1.946,9.267-6.067,11.213-11.213
	C276.352,245.197,275.686,249.498,272.64,252.518z"/>
<g>
</g>
<g>
</g>
<g>
</g>
<g>
</g>
<g>
</g>
<g>
</g>
<g>
</g>
<g>
</g>
<g>
</g>
<g>
</g>
<g>
</g>
<g>
</g>
<g>
</g>
<g>
</g>
<g>
</g>
</svg>
