<?xml version="1.0" encoding="iso-8859-1"?>
<!-- Generator: Adobe Illustrator 19.0.0, SVG Export Plug-In . SVG Version: 6.00 Build 0)  -->
<svg version="1.1" id="Layer_1" xmlns="http://www.w3.org/2000/svg" xmlns:xlink="http://www.w3.org/1999/xlink" x="0px" y="0px"
	 viewBox="0 0 512 512" style="enable-background:new 0 0 512 512;" xml:space="preserve">
<circle style="fill:#0575A5;" cx="256" cy="256" r="256"/>
<path style="fill:#025E90;" d="M506.227,310.07L381.934,185.777c-1.257-1.216-2.87-1.841-4.477-1.841h-2.156l-4.511-4.513
	c-1.216-1.213-2.862-1.841-4.465-1.841h-18.627L329.7,159.585l-43.648,8.855l-0.018,0.02l-44.844,9.121h-9.684l-17.091-17.098
	c-1.224-1.257-2.829-1.843-4.477-1.843h-59.96c-1.644,0-3.251,0.586-4.467,1.843c-1.257,1.254-1.882,2.867-1.882,4.467v12.631
	h-3.141c-1.603,0-3.215,0.627-4.431,1.841c-1.249,1.257-1.882,2.862-1.882,4.47v10.941v4.511l-15.447,3.139l15.447,75.922v64.66
	c0,2.353,0.788,4.511,2.115,6.236l1.651,1.684c0.044,0.038,0.082,0.079,0.161,0.118l157.783,157.788
	C400.543,492.511,484.147,412.733,506.227,310.07z"/>
<path style="fill:#F28124;" d="M372.659,183.916v169.436H144.486c-5.688,0-10.294-4.611-10.294-10.294V183.916
	c0-1.631,0.625-3.236,1.861-4.475c1.229-1.226,2.854-1.848,4.467-1.848h3.133v-12.623c0-1.626,0.617-3.236,1.874-4.477
	c1.224-1.236,2.834-1.843,4.467-1.843h59.971c1.623,0,3.231,0.607,4.475,1.843c1.221,1.242,1.841,2.852,1.841,4.477v12.623h150.054
	c1.623,0,3.259,0.622,4.483,1.848C372.058,180.68,372.659,182.285,372.659,183.916z"/>
<rect x="131.959" y="179.494" transform="matrix(-0.9799 0.1994 -0.1994 -0.9799 525.5123 459.9927)" style="fill:#FFFFFF;" width="215.267" height="153.93"/>
<path style="fill:#FF9D4D;" d="M393.249,209.18v134.231c-0.172,5.512-4.723,9.94-10.299,9.94H144.522
	c5.686-0.018,10.271-4.623,10.271-10.294V209.18c0-1.605,0.614-3.22,1.859-4.46c1.216-1.224,2.844-1.859,4.457-1.859h150.065
	v-12.611c0-1.626,0.622-3.254,1.848-4.477c1.244-1.224,2.852-1.848,4.46-1.848h59.994c1.605,0,3.231,0.625,4.454,1.848
	c1.239,1.221,1.859,2.852,1.859,4.477v12.611h3.133c1.631,0,3.259,0.637,4.485,1.859C392.62,205.96,393.249,207.575,393.249,209.18z
	"/>
<g>
	<path style="fill:#F28124;" d="M393.249,343.411v-0.353H154.793c0,5.67-4.588,10.276-10.271,10.294H382.95
		C388.529,353.349,393.078,348.923,393.249,343.411z"/>
	<rect x="177.434" y="225.485" style="fill:#F28124;" width="47.949" height="18.161"/>
	<rect x="229.402" y="225.485" style="fill:#F28124;" width="47.944" height="3.384"/>
	<rect x="229.402" y="232.883" style="fill:#F28124;" width="47.944" height="3.392"/>
	<rect x="229.402" y="240.282" style="fill:#F28124;" width="47.944" height="3.384"/>
	<rect x="177.434" y="247.654" style="fill:#F28124;" width="75.93" height="3.384"/>
</g>
<g>
</g>
<g>
</g>
<g>
</g>
<g>
</g>
<g>
</g>
<g>
</g>
<g>
</g>
<g>
</g>
<g>
</g>
<g>
</g>
<g>
</g>
<g>
</g>
<g>
</g>
<g>
</g>
<g>
</g>
</svg>
