<?xml version="1.0" encoding="UTF-8"?>
<!DOCTYPE svg PUBLIC "-//W3C//DTD SVG 1.1//EN" "http://www.w3.org/Graphics/SVG/1.1/DTD/svg11.dtd">
<svg xmlns="http://www.w3.org/2000/svg" version="1.1" width="100px" height="100px" style="shape-rendering:geometricPrecision; text-rendering:geometricPrecision; image-rendering:optimizeQuality; fill-rule:evenodd; clip-rule:evenodd" xmlns:xlink="http://www.w3.org/1999/xlink">
<g><path style="opacity:0.912" fill="#000000" d="M 18.5,-0.5 C 20.5,-0.5 22.5,-0.5 24.5,-0.5C 25.5366,1.73752 25.7033,4.07085 25,6.5C 21.5,10 18,13.5 14.5,17C 34.8843,17.0472 55.2177,17.7139 75.5,19C 87.5091,23.8392 95.5091,32.3392 99.5,44.5C 99.5,50.5 99.5,56.5 99.5,62.5C 94.9099,76.2547 85.5766,85.088 71.5,89C 58.1708,89.4999 44.8375,89.6666 31.5,89.5C 31.5,86.8333 31.5,84.1667 31.5,81.5C 42.1719,81.6665 52.8385,81.4998 63.5,81C 83.5232,78.1279 92.3565,66.6279 90,46.5C 86.8333,36.6667 80.3333,30.1667 70.5,27C 51.8676,25.4293 33.2009,25.096 14.5,26C 18,29.5 21.5,33 25,36.5C 26.8333,42.6667 24.6667,44.8333 18.5,43C 12.2981,36.6306 5.96481,30.4639 -0.5,24.5C -0.5,22.5 -0.5,20.5 -0.5,18.5C 6.16667,12.5 12.5,6.16667 18.5,-0.5 Z"/></g>
<g><path style="opacity:1" fill="#000000" d="M -0.5,81.5 C 0.833333,81.5 2.16667,81.5 3.5,81.5C 3.5,84.1667 3.5,86.8333 3.5,89.5C 2.16667,89.5 0.833333,89.5 -0.5,89.5C -0.5,86.8333 -0.5,84.1667 -0.5,81.5 Z"/></g>
<g><path style="opacity:1" fill="#000000" d="M 7.5,81.5 C 8.83333,81.5 10.1667,81.5 11.5,81.5C 11.5,84.1667 11.5,86.8333 11.5,89.5C 10.1667,89.5 8.83333,89.5 7.5,89.5C 7.5,86.8333 7.5,84.1667 7.5,81.5 Z"/></g>
<g><path style="opacity:1" fill="#000000" d="M 15.5,81.5 C 16.8333,81.5 18.1667,81.5 19.5,81.5C 19.5,84.1667 19.5,86.8333 19.5,89.5C 18.1667,89.5 16.8333,89.5 15.5,89.5C 15.5,86.8333 15.5,84.1667 15.5,81.5 Z"/></g>
<g><path style="opacity:1" fill="#000000" d="M 23.5,81.5 C 24.8333,81.5 26.1667,81.5 27.5,81.5C 27.5,84.1667 27.5,86.8333 27.5,89.5C 26.1667,89.5 24.8333,89.5 23.5,89.5C 23.5,86.8333 23.5,84.1667 23.5,81.5 Z"/></g>
</svg>
