<?xml version="1.0" encoding="UTF-8"?>
<!DOCTYPE svg PUBLIC "-//W3C//DTD SVG 1.1//EN" "http://www.w3.org/Graphics/SVG/1.1/DTD/svg11.dtd">
<svg xmlns="http://www.w3.org/2000/svg" version="1.1" width="100px" height="100px" style="shape-rendering:geometricPrecision; text-rendering:geometricPrecision; image-rendering:optimizeQuality; fill-rule:evenodd; clip-rule:evenodd" xmlns:xlink="http://www.w3.org/1999/xlink">
<g><path style="opacity:0.842" fill="#000000" d="M 41.5,7.5 C 67.1603,5.68046 83.6603,17.0138 91,41.5C 93.515,65.3211 83.6816,81.4878 61.5,90C 36.1637,94.751 18.6637,85.251 9,61.5C 4.26303,33.9548 15.0964,15.9548 41.5,7.5 Z M 44.5,14.5 C 45.2663,16.6843 45.9329,19.0177 46.5,21.5C 48.5,22.8333 50.5,22.8333 52.5,21.5C 53.2132,19.2241 53.7132,16.8907 54,14.5C 57.376,15.3472 60.5427,16.6806 63.5,18.5C 61.0321,21.4508 61.0321,24.2842 63.5,27C 66.6478,27.0598 68.9812,25.5598 70.5,22.5C 73.6377,23.8045 75.971,25.9712 77.5,29C 76.2713,30.5292 74.7713,31.6959 73,32.5C 72.0191,35.5572 73.0191,37.5572 76,38.5C 77.7983,37.4962 79.6316,36.9962 81.5,37C 82.6532,39.6157 83.6532,42.2824 84.5,45C 82.1093,45.2868 79.7759,45.7868 77.5,46.5C 76.1667,48.5 76.1667,50.5 77.5,52.5C 79.7759,53.2132 82.1093,53.7132 84.5,54C 78.143,77.0148 63.143,86.6815 39.5,83C 26.056,77.8012 17.7226,68.1346 14.5,54C 16.8907,53.7132 19.2241,53.2132 21.5,52.5C 22.8333,50.5 22.8333,48.5 21.5,46.5C 19.2241,45.7868 16.8907,45.2868 14.5,45C 15.3468,42.2824 16.3468,39.6157 17.5,37C 19.3684,36.9962 21.2017,37.4962 23,38.5C 25.9809,37.5572 26.9809,35.5572 26,32.5C 24.5905,31.2125 23.0905,30.0458 21.5,29C 23.029,25.9712 25.3623,23.8045 28.5,22.5C 30.0188,25.5598 32.3522,27.0598 35.5,27C 37.9679,24.2842 37.9679,21.4508 35.5,18.5C 38.4121,16.76 41.4121,15.4267 44.5,14.5 Z"/></g>
<g><path style="opacity:0.816" fill="#000000" d="M 60.5,32.5 C 65.6752,31.5071 67.5086,33.5071 66,38.5C 63,41.5 60,44.5 57,47.5C 56.1865,54.9776 52.3531,57.4776 45.5,55C 40.8822,47.8915 42.8822,43.5582 51.5,42C 54.7044,38.9641 57.7044,35.7974 60.5,32.5 Z"/></g>
</svg>
