<?xml version="1.0" encoding="UTF-8"?>
<!DOCTYPE svg PUBLIC "-//W3C//DTD SVG 1.1//EN" "http://www.w3.org/Graphics/SVG/1.1/DTD/svg11.dtd">
<svg xmlns="http://www.w3.org/2000/svg" version="1.1" width="100px" height="100px" style="shape-rendering:geometricPrecision; text-rendering:geometricPrecision; image-rendering:optimizeQuality; fill-rule:evenodd; clip-rule:evenodd" xmlns:xlink="http://www.w3.org/1999/xlink">
<g><path style="opacity:0.739" fill="#000000" d="M 41.5,-0.5 C 43.8333,-0.5 46.1667,-0.5 48.5,-0.5C 49.4025,2.39147 49.7359,5.39147 49.5,8.5C 57.9524,9.56206 65.6191,12.5621 72.5,17.5C 73.5,17.1667 74.1667,16.5 74.5,15.5C 72.6366,9.19742 74.9699,6.36409 81.5,7C 86.2999,11.1217 90.2999,15.7884 93.5,21C 92.9757,24.355 90.9757,26.1884 87.5,26.5C 85.9707,26.4712 84.804,25.8045 84,24.5C 83.1667,25.3333 82.3333,26.1667 81.5,27C 93.3289,44.9777 93.4956,63.1443 82,81.5C 74.7487,90.6127 65.582,96.6127 54.5,99.5C 48.1667,99.5 41.8333,99.5 35.5,99.5C 16.5,94.5 4.5,82.5 -0.5,63.5C -0.5,57.1667 -0.5,50.8333 -0.5,44.5C 5.40501,24.9321 18.405,12.9321 38.5,8.5C 39.043,5.25481 40.043,2.25481 41.5,-0.5 Z M 43.5,3.5 C 44.6491,3.79106 45.3158,4.62439 45.5,6C 45.1667,6.83333 44.8333,7.66667 44.5,8.5C 43.5481,6.95467 43.2148,5.28801 43.5,3.5 Z M 78.5,10.5 C 81.7974,13.2956 84.9641,16.2956 88,19.5C 88.6877,20.3317 88.521,20.9984 87.5,21.5C 84.0154,18.516 80.682,15.3493 77.5,12C 78.056,11.6174 78.3893,11.1174 78.5,10.5 Z M 38.5,12.5 C 56.9374,11.1358 71.1041,18.1358 81,33.5C 91.3048,57.2479 85.8048,76.4145 64.5,91C 43.4397,100.109 25.6064,95.9418 11,78.5C -2.22987,55.3051 1.60346,35.4718 22.5,19C 27.7441,16.315 33.0775,14.1484 38.5,12.5 Z M 77.5,18.5 C 80.4073,19.614 80.9073,21.2807 79,23.5C 76.676,22.2247 76.176,20.558 77.5,18.5 Z"/></g>
<g><path style="opacity:0.705" fill="#000000" d="M 43.5,17.5 C 71.1843,20.5399 83.351,35.8732 80,63.5C 78.5079,69.9867 75.3412,75.4867 70.5,80C 69.552,80.4828 68.552,80.6495 67.5,80.5C 67.3433,79.1266 67.51,77.7932 68,76.5C 80.3461,61.9508 80.5128,47.2841 68.5,32.5C 62.6625,25.9152 55.3292,22.5819 46.5,22.5C 46.6602,24.1992 46.4935,25.8659 46,27.5C 45,28.8333 44,28.8333 43,27.5C 42.2534,24.0764 42.42,20.7431 43.5,17.5 Z"/></g>
<g><path style="opacity:0.713" fill="#000000" d="M 19.5,27.5 C 21.2517,27.4176 22.2517,28.2509 22.5,30C 12.7966,40.652 10.2966,52.8187 15,66.5C 16.8409,70.1832 19.1742,73.5165 22,76.5C 22.49,77.7932 22.6567,79.1266 22.5,80.5C 21.1266,80.6567 19.7932,80.49 18.5,80C 4.92419,62.2305 5.25752,44.7305 19.5,27.5 Z"/></g>
<g><path style="opacity:0.664" fill="#000000" d="M 43.5,30.5 C 44.5,30.5 45.5,30.5 46.5,30.5C 46.5,32.8333 46.5,35.1667 46.5,37.5C 42.452,36.7378 41.452,34.4045 43.5,30.5 Z"/></g>
<g><path style="opacity:0.77" fill="#000000" d="M 24.5,33.5 C 25.552,33.3505 26.552,33.5172 27.5,34C 32.5,39 37.5,44 42.5,49C 49.0486,48.381 51.2153,51.2143 49,57.5C 42.8754,60.7609 39.542,58.7609 39,51.5C 34.3333,46.8333 29.6667,42.1667 25,37.5C 24.51,36.2068 24.3433,34.8734 24.5,33.5 Z"/></g>
<g><path style="opacity:0.611" fill="#000000" d="M 27.5,79.5 C 28.8333,79.5 30.1667,79.5 31.5,79.5C 31.9215,82.6571 30.7548,84.9905 28,86.5C 27.1667,85.6667 26.3333,84.8333 25.5,84C 26.5822,82.6703 27.2488,81.1703 27.5,79.5 Z"/></g>
<g><path style="opacity:0.659" fill="#000000" d="M 58.5,79.5 C 62.5181,80.0385 63.8515,82.2052 62.5,86C 61.5509,86.6172 60.7175,86.4506 60,85.5C 58.872,83.6547 58.372,81.6547 58.5,79.5 Z"/></g>
<g><path style="opacity:0.662" fill="#000000" d="M 35.5,82.5 C 36.5,82.5 37.5,82.5 38.5,82.5C 38.6621,84.5273 38.4955,86.5273 38,88.5C 36.9887,89.3366 35.8221,89.67 34.5,89.5C 34.298,87.0504 34.6314,84.717 35.5,82.5 Z"/></g>
<g><path style="opacity:0.575" fill="#000000" d="M 50.5,82.5 C 54.8035,82.7352 56.4702,85.0685 55.5,89.5C 54.1667,89.5 52.8333,89.5 51.5,89.5C 51.0074,87.1944 50.6741,84.861 50.5,82.5 Z"/></g>
<g><path style="opacity:0.664" fill="#000000" d="M 43.5,83.5 C 44.5,83.5 45.5,83.5 46.5,83.5C 46.5,85.8333 46.5,88.1667 46.5,90.5C 42.452,89.7378 41.452,87.4045 43.5,83.5 Z"/></g>
</svg>
