<?xml version="1.0" encoding="UTF-8"?>
<!DOCTYPE svg PUBLIC "-//W3C//DTD SVG 1.1//EN" "http://www.w3.org/Graphics/SVG/1.1/DTD/svg11.dtd">
<svg xmlns="http://www.w3.org/2000/svg" version="1.1" width="100px" height="100px" style="shape-rendering:geometricPrecision; text-rendering:geometricPrecision; image-rendering:optimizeQuality; fill-rule:evenodd; clip-rule:evenodd" xmlns:xlink="http://www.w3.org/1999/xlink">
<g><path style="opacity:0.969" fill="#000000" d="M 4.5,26.5 C 5.4959,26.4142 6.32924,26.7476 7,27.5C 7.49991,42.1629 7.66658,56.8295 7.5,71.5C 6.16667,71.5 4.83333,71.5 3.5,71.5C 3.18362,56.4219 3.51696,41.4219 4.5,26.5 Z"/></g>
<g><path style="opacity:0.969" fill="#000000" d="M 92.5,26.5 C 93.4959,26.4142 94.3292,26.7476 95,27.5C 95.4999,42.1629 95.6666,56.8295 95.5,71.5C 94.1667,71.5 92.8333,71.5 91.5,71.5C 91.1836,56.4219 91.517,41.4219 92.5,26.5 Z"/></g>
<g><path style="opacity:0.766" fill="#000000" d="M 11.5,27.5 C 12.8333,27.5 14.1667,27.5 15.5,27.5C 15.5,28.8333 15.5,30.1667 15.5,31.5C 14.1667,31.5 12.8333,31.5 11.5,31.5C 11.5,30.1667 11.5,28.8333 11.5,27.5 Z"/></g>
<g><path style="opacity:0.766" fill="#000000" d="M 19.5,27.5 C 20.8333,27.5 22.1667,27.5 23.5,27.5C 23.5,28.8333 23.5,30.1667 23.5,31.5C 22.1667,31.5 20.8333,31.5 19.5,31.5C 19.5,30.1667 19.5,28.8333 19.5,27.5 Z"/></g>
<g><path style="opacity:0.766" fill="#000000" d="M 27.5,27.5 C 28.8333,27.5 30.1667,27.5 31.5,27.5C 31.5,28.8333 31.5,30.1667 31.5,31.5C 30.1667,31.5 28.8333,31.5 27.5,31.5C 27.5,30.1667 27.5,28.8333 27.5,27.5 Z"/></g>
<g><path style="opacity:0.766" fill="#000000" d="M 35.5,27.5 C 36.8333,27.5 38.1667,27.5 39.5,27.5C 39.5,28.8333 39.5,30.1667 39.5,31.5C 38.1667,31.5 36.8333,31.5 35.5,31.5C 35.5,30.1667 35.5,28.8333 35.5,27.5 Z"/></g>
<g><path style="opacity:0.766" fill="#000000" d="M 43.5,27.5 C 44.8333,27.5 46.1667,27.5 47.5,27.5C 47.5,28.8333 47.5,30.1667 47.5,31.5C 46.1667,31.5 44.8333,31.5 43.5,31.5C 43.5,30.1667 43.5,28.8333 43.5,27.5 Z"/></g>
<g><path style="opacity:0.766" fill="#000000" d="M 51.5,27.5 C 52.8333,27.5 54.1667,27.5 55.5,27.5C 55.5,28.8333 55.5,30.1667 55.5,31.5C 54.1667,31.5 52.8333,31.5 51.5,31.5C 51.5,30.1667 51.5,28.8333 51.5,27.5 Z"/></g>
<g><path style="opacity:0.766" fill="#000000" d="M 59.5,27.5 C 60.8333,27.5 62.1667,27.5 63.5,27.5C 63.5,28.8333 63.5,30.1667 63.5,31.5C 62.1667,31.5 60.8333,31.5 59.5,31.5C 59.5,30.1667 59.5,28.8333 59.5,27.5 Z"/></g>
<g><path style="opacity:0.766" fill="#000000" d="M 67.5,27.5 C 68.8333,27.5 70.1667,27.5 71.5,27.5C 71.5,28.8333 71.5,30.1667 71.5,31.5C 70.1667,31.5 68.8333,31.5 67.5,31.5C 67.5,30.1667 67.5,28.8333 67.5,27.5 Z"/></g>
<g><path style="opacity:0.766" fill="#000000" d="M 75.5,27.5 C 76.8333,27.5 78.1667,27.5 79.5,27.5C 79.5,28.8333 79.5,30.1667 79.5,31.5C 78.1667,31.5 76.8333,31.5 75.5,31.5C 75.5,30.1667 75.5,28.8333 75.5,27.5 Z"/></g>
<g><path style="opacity:0.766" fill="#000000" d="M 83.5,27.5 C 84.8333,27.5 86.1667,27.5 87.5,27.5C 87.5,28.8333 87.5,30.1667 87.5,31.5C 86.1667,31.5 84.8333,31.5 83.5,31.5C 83.5,30.1667 83.5,28.8333 83.5,27.5 Z"/></g>
<g><path style="opacity:0.886" fill="#000000" d="M 21.5,38.5 C 23.4841,38.484 24.4841,39.484 24.5,41.5C 23.4102,43.7443 21.7436,45.5777 19.5,47C 39.5,47.6667 59.5,47.6667 79.5,47C 78.2713,45.4708 76.7713,44.3041 75,43.5C 74.51,42.2068 74.3433,40.8734 74.5,39.5C 76.1992,39.3398 77.8659,39.5065 79.5,40C 82.1667,42 84.8333,44 87.5,46C 90.1667,48.3333 90.1667,50.6667 87.5,53C 84.8333,55 82.1667,57 79.5,59C 77.8659,59.4935 76.1992,59.6602 74.5,59.5C 74.3433,58.1266 74.51,56.7932 75,55.5C 76.7713,54.6959 78.2713,53.5292 79.5,52C 59.5,51.3333 39.5,51.3333 19.5,52C 20.7287,53.5292 22.2287,54.6959 24,55.5C 24.49,56.7932 24.6567,58.1266 24.5,59.5C 22.8008,59.6602 21.1341,59.4935 19.5,59C 16.8333,57 14.1667,55 11.5,53C 8.83333,50.6667 8.83333,48.3333 11.5,46C 15.0804,43.7226 18.4137,41.2226 21.5,38.5 Z"/></g>
<g><path style="opacity:0.766" fill="#000000" d="M 11.5,67.5 C 12.8333,67.5 14.1667,67.5 15.5,67.5C 15.5,68.8333 15.5,70.1667 15.5,71.5C 14.1667,71.5 12.8333,71.5 11.5,71.5C 11.5,70.1667 11.5,68.8333 11.5,67.5 Z"/></g>
<g><path style="opacity:0.766" fill="#000000" d="M 19.5,67.5 C 20.8333,67.5 22.1667,67.5 23.5,67.5C 23.5,68.8333 23.5,70.1667 23.5,71.5C 22.1667,71.5 20.8333,71.5 19.5,71.5C 19.5,70.1667 19.5,68.8333 19.5,67.5 Z"/></g>
<g><path style="opacity:0.766" fill="#000000" d="M 27.5,67.5 C 28.8333,67.5 30.1667,67.5 31.5,67.5C 31.5,68.8333 31.5,70.1667 31.5,71.5C 30.1667,71.5 28.8333,71.5 27.5,71.5C 27.5,70.1667 27.5,68.8333 27.5,67.5 Z"/></g>
<g><path style="opacity:0.766" fill="#000000" d="M 35.5,67.5 C 36.8333,67.5 38.1667,67.5 39.5,67.5C 39.5,68.8333 39.5,70.1667 39.5,71.5C 38.1667,71.5 36.8333,71.5 35.5,71.5C 35.5,70.1667 35.5,68.8333 35.5,67.5 Z"/></g>
<g><path style="opacity:0.766" fill="#000000" d="M 43.5,67.5 C 44.8333,67.5 46.1667,67.5 47.5,67.5C 47.5,68.8333 47.5,70.1667 47.5,71.5C 46.1667,71.5 44.8333,71.5 43.5,71.5C 43.5,70.1667 43.5,68.8333 43.5,67.5 Z"/></g>
<g><path style="opacity:0.766" fill="#000000" d="M 51.5,67.5 C 52.8333,67.5 54.1667,67.5 55.5,67.5C 55.5,68.8333 55.5,70.1667 55.5,71.5C 54.1667,71.5 52.8333,71.5 51.5,71.5C 51.5,70.1667 51.5,68.8333 51.5,67.5 Z"/></g>
<g><path style="opacity:0.766" fill="#000000" d="M 59.5,67.5 C 60.8333,67.5 62.1667,67.5 63.5,67.5C 63.5,68.8333 63.5,70.1667 63.5,71.5C 62.1667,71.5 60.8333,71.5 59.5,71.5C 59.5,70.1667 59.5,68.8333 59.5,67.5 Z"/></g>
<g><path style="opacity:0.766" fill="#000000" d="M 67.5,67.5 C 68.8333,67.5 70.1667,67.5 71.5,67.5C 71.5,68.8333 71.5,70.1667 71.5,71.5C 70.1667,71.5 68.8333,71.5 67.5,71.5C 67.5,70.1667 67.5,68.8333 67.5,67.5 Z"/></g>
<g><path style="opacity:0.766" fill="#000000" d="M 75.5,67.5 C 76.8333,67.5 78.1667,67.5 79.5,67.5C 79.5,68.8333 79.5,70.1667 79.5,71.5C 78.1667,71.5 76.8333,71.5 75.5,71.5C 75.5,70.1667 75.5,68.8333 75.5,67.5 Z"/></g>
<g><path style="opacity:0.766" fill="#000000" d="M 83.5,67.5 C 84.8333,67.5 86.1667,67.5 87.5,67.5C 87.5,68.8333 87.5,70.1667 87.5,71.5C 86.1667,71.5 84.8333,71.5 83.5,71.5C 83.5,70.1667 83.5,68.8333 83.5,67.5 Z"/></g>
</svg>
