<?xml version="1.0" encoding="UTF-8"?>
<!DOCTYPE svg PUBLIC "-//W3C//DTD SVG 1.1//EN" "http://www.w3.org/Graphics/SVG/1.1/DTD/svg11.dtd">
<svg xmlns="http://www.w3.org/2000/svg" version="1.1" width="100px" height="100px" style="shape-rendering:geometricPrecision; text-rendering:geometricPrecision; image-rendering:optimizeQuality; fill-rule:evenodd; clip-rule:evenodd" xmlns:xlink="http://www.w3.org/1999/xlink">
<g><path style="opacity:0.516" fill="#c59b57" d="M 39.5,-0.5 C 52.5,-0.5 65.5,-0.5 78.5,-0.5C 72.0624,11.7764 65.3957,23.9431 58.5,36C 65.8559,36.1687 73.1892,36.6687 80.5,37.5C 62.1044,57.8905 44.1044,78.5572 26.5,99.5C 25.1667,99.5 23.8333,99.5 22.5,99.5C 27.6763,85.4724 33.343,71.6391 39.5,58C 32.1742,57.5003 24.8409,57.3337 17.5,57.5C 24.274,37.9525 31.6073,18.6192 39.5,-0.5 Z"/></g>
<g><path style="opacity:1" fill="#fbf5e3" d="M 40.5,1.5 C 41.5735,2.25057 41.7401,3.25057 41,4.5C 33.9991,21.3402 27.4991,38.3402 21.5,55.5C 20.6236,55.6309 19.9569,55.2975 19.5,54.5C 26.7037,36.8839 33.7037,19.2173 40.5,1.5 Z"/></g>
<g><path style="opacity:1" fill="#feeda2" d="M 40.5,1.5 C 51.9927,0.340533 63.6593,0.173866 75.5,1C 68.8333,13.3333 62.1667,25.6667 55.5,38C 62.5,38.3333 69.5,38.6667 76.5,39C 60.6003,57.3327 44.6003,75.4994 28.5,93.5C 32.6965,82.0833 37.1965,70.75 42,59.5C 42.7401,58.2506 42.5735,57.2506 41.5,56.5C 35.021,55.5093 28.3543,55.176 21.5,55.5C 27.4991,38.3402 33.9991,21.3402 41,4.5C 41.7401,3.25057 41.5735,2.25057 40.5,1.5 Z"/></g>
<g><path style="opacity:1" fill="#fbf5e1" d="M 41.5,56.5 C 42.5735,57.2506 42.7401,58.2506 42,59.5C 37.1965,70.75 32.6965,82.0833 28.5,93.5C 27.7808,95.3173 26.7808,95.9839 25.5,95.5C 30.8409,82.4711 36.1742,69.4711 41.5,56.5 Z"/></g>
</svg>
